<svg id="Layer_1" data-name="Layer 1" xmlns="http://www.w3.org/2000/svg" viewBox="0 0 239.96639 57.91787"><defs><style>.cls-1{font-size:9.3386px;font-family:UTM-Avo, UTM Avo;}.cls-1,.cls-5{fill:#d42027;}.cls-2{letter-spacing:0.27696em;}.cls-3{letter-spacing:0.27602em;}.cls-4{letter-spacing:0.27701em;}.cls-6{fill:#231f20;}</style></defs><title>hazomedia</title><text class="cls-1" transform="translate(65.67 49.49835)"><tspan class="cls-2">Kiến tạo gi</tspan><tspan class="cls-3" x="76.57471" y="0">á</tspan><tspan class="cls-4" x="85.52686" y="0" xml:space="preserve"> trị cùng bạ</tspan><tspan x="168.60107" y="0">n</tspan></text><path class="cls-5" d="M216.2715,163.9805h-3.738v8.463h-7.37v-6.458a2.00268,2.00268,0,0,0-1.832-1.996,1.57789,1.57789,0,0,0-.206-.009h-3.738v20.507a2.00932,2.00932,0,0,0,.551,1.389,2.03949,2.03949,0,0,0,1.454.616h3.771v-8.996h7.37v6.991a2.002,2.002,0,0,0,2.004,2.005h3.738v-20.507a2.002,2.002,0,0,0-2.004-2.005" transform="translate(-133.07658 -148.78601)"/><path class="cls-5" d="M234.8053,169.61014v1.799h-.066a4.45773,4.45773,0,0,0-2.136-1.815,6.941,6.941,0,0,0-2.793-.559,7.96486,7.96486,0,0,0-6.146,2.653,9.9571,9.9571,0,0,0-.041,12.76,7.95219,7.95219,0,0,0,6.187,2.629,7.13862,7.13862,0,0,0,2.81-.551,4.09654,4.09654,0,0,0,2.119-1.856h.066v1.823h5.045v-14.878a2.00562,2.00562,0,0,0-2.006-2.005Zm-1.191,11.51a4.28647,4.28647,0,0,1-6.031-.016,4.15491,4.15491,0,0,1-1.199-2.999,4.3196,4.3196,0,0,1,1.158-3.073,3.91976,3.91976,0,0,1,3.015-1.281,4.08945,4.08945,0,0,1,3.04,1.223,4.169,4.169,0,0,1,1.208,3.074,4.27112,4.27112,0,0,1-1.191,3.072" transform="translate(-133.07658 -148.78601)"/><path class="cls-5" d="M254.7124,169.61041h-10.608a1.95275,1.95275,0,0,0-1.954,1.953v1.875h7.115l-7.115,9.597v3.458h10.608a1.95337,1.95337,0,0,0,1.954-1.953v-1.875h-6.605l6.605-9.227Z" transform="translate(-133.07658 -148.78601)"/><path class="cls-5" d="M271.80948,171.61432a9.50116,9.50116,0,0,0-12.965,0,9.2081,9.2081,0,0,0,0,12.85,9.52573,9.52573,0,0,0,12.965,0,9.20555,9.20555,0,0,0,0-12.85m-3.582,9.416a3.96689,3.96689,0,0,1-5.809,0,4.47605,4.47605,0,0,1,0-5.973,3.95,3.95,0,0,1,5.809,0,4.47605,4.47605,0,0,1,0,5.973" transform="translate(-133.07658 -148.78601)"/><path class="cls-6" d="M293.81149,163.98239l-4.412,14.821h-.057l-4.04-13.395a2.00412,2.00412,0,0,0-1.92-1.426h-5.904v20.506a2.00479,2.00479,0,0,0,2.005,2.005h3.286l-.181-16.851.057-.057,4.815,16.908h3.796l4.798-16.908.057.057-.152,14.825a2.00576,2.00576,0,0,0,2.006,2.026h3.257v-20.506a2.00479,2.00479,0,0,0-2.005-2.005Z" transform="translate(-133.07658 -148.78601)"/><path class="cls-6" d="M321.926,178.25342a9.11248,9.11248,0,0,0-2.514-6.515,8.78287,8.78287,0,0,0-12.677,0,8.80887,8.80887,0,0,0-2.571,6.367,8.97448,8.97448,0,0,0,8.939,8.939,8.23918,8.23918,0,0,0,5.003-1.652,9.91075,9.91075,0,0,0,3.237-4.181h-5.168a3.82181,3.82181,0,0,1-3.072,1.569q-3.4755,0-3.953-3.188h12.653a6.82274,6.82274,0,0,0,.123-1.339m-12.718-2.062q.62849-2.898,3.837-2.9c2.136,0,3.418.968,3.829,2.9Z" transform="translate(-133.07658 -148.78601)"/><path class="cls-6" d="M337.249,163.98291v7.073a6.61611,6.61611,0,0,0-4.962-2.021,7.81706,7.81706,0,0,0-6.089,2.654,10.0118,10.0118,0,0,0,.017,12.71,7.89267,7.89267,0,0,0,6.162,2.645,7.2917,7.2917,0,0,0,2.867-.518,4.43117,4.43117,0,0,0,2.186-1.856h.057v1.823h4.806v-20.506a2.00455,2.00455,0,0,0-2.005-2.004Zm-.937,17.105a4.18619,4.18619,0,0,1-3.105,1.232,4.0034,4.0034,0,0,1-3.057-1.249,4.261,4.261,0,0,1-1.174-3.081,4.07854,4.07854,0,0,1,1.232-3.048,4.22439,4.22439,0,0,1,3.064-1.191,4.14,4.14,0,0,1,3.04,1.208,4.07931,4.07931,0,0,1,1.2,3.031,4.24616,4.24616,0,0,1-1.2,3.098" transform="translate(-133.07658 -148.78601)"/><path class="cls-6" d="M345.93311,169.61041v14.878a2.00477,2.00477,0,0,0,2.005,2.005h3.048v-14.878a2.005,2.005,0,0,0-2.006-2.005Zm0-5.628v3.845h5.053v-1.84a2.005,2.005,0,0,0-2.006-2.005Z" transform="translate(-133.07658 -148.78601)"/><path class="cls-6" d="M367.30209,169.61014v1.799h-.058a4.53011,4.53011,0,0,0-2.135-1.815,6.94939,6.94939,0,0,0-2.794-.559,7.94944,7.94944,0,0,0-6.145,2.653,9.1006,9.1006,0,0,0-2.334,6.36,9.25575,9.25575,0,0,0,2.284,6.4,7.96911,7.96911,0,0,0,6.195,2.629,7.06715,7.06715,0,0,0,2.802-.551,4.11926,4.11926,0,0,0,2.127-1.856h.058v1.823h5.053v-14.878a2.00563,2.00563,0,0,0-2.006-2.005Zm-1.183,11.51a4.28528,4.28528,0,0,1-6.03-.016,4.13054,4.13054,0,0,1-1.208-2.999,4.31962,4.31962,0,0,1,1.158-3.073,3.94565,3.94565,0,0,1,3.016-1.281,4.10912,4.10912,0,0,1,3.048,1.223,4.19755,4.19755,0,0,1,1.199,3.074,4.26485,4.26485,0,0,1-1.183,3.072" transform="translate(-133.07658 -148.78601)"/><path class="cls-6" d="M166.7119,149.628a6.08407,6.08407,0,0,1,1.38-.842,21.40672,21.40672,0,0,1,3.691.863,174.86076,174.86076,0,0,0-19.77,16.034c-5.888,5.704-11.323,12.064-14.901,19.498-.378.771-.69,1.57-1.093,2.331-.222-.622-.428-1.247-.629-1.874-1.253,2.881-2.236,6.128-1.358,9.261-1.317-2.158-1.076-4.837-.447-7.177a38.30818,38.30818,0,0,1,5.362-10.846,100.85153,100.85153,0,0,1,16.007-17.962,121.2322,121.2322,0,0,1,11.758-9.286" transform="translate(-133.07658 -148.78601)"/><path class="cls-6" d="M146.1226,153.90921a28.35718,28.35718,0,0,1,12.018-5.103,105.45183,105.45183,0,0,0-17.505,17.248,80.87154,80.87154,0,0,0-6.343,9.349,28.82349,28.82349,0,0,1,11.83-21.494" transform="translate(-133.07658 -148.78601)"/><path class="cls-6" d="M148.1318,178.13669a198.48233,198.48233,0,0,1,30.632-25.251,24.75858,24.75858,0,0,1,3,2.18,236.76113,236.76113,0,0,0-20.913,14.943c-6.695,5.508-12.941,11.698-17.693,18.994-1.224,1.801-2.206,3.747-3.301,5.627-.502-.778-1.025-1.545-1.53-2.319a9.39641,9.39641,0,0,0-1.647,4.849,6.41714,6.41714,0,0,0,.688,2.406,3.67428,3.67428,0,0,1-1.333-3.773,18.74248,18.74248,0,0,1,3.071-6.79,80.65506,80.65506,0,0,1,9.026-10.866" transform="translate(-133.07658 -148.78601)"/><path class="cls-5" d="M176.9941,165.7998c3.143-1.969,6.322-3.885,9.585-5.646a29.01383,29.01383,0,0,1-24.647,46.175,29.61149,29.61149,0,0,1-7.641-1.355,26.47767,26.47767,0,0,1-8.619,1.728,6.85356,6.85356,0,0,1-5.041-2.079c2.473,1.545,5.537,1.457,8.306.959a51.57566,51.57566,0,0,0,12.995-4.62,77.731,77.731,0,0,0,9.251-5.356,129.90122,129.90122,0,0,1-19.655,8.076c-1.197.189-2.052-1.354-3.269-.978a12.6006,12.6006,0,0,1-5.863-.032c9.508-.518,18.484-4.188,26.864-8.478-2.922.986-5.764,2.204-8.703,3.147a81.64212,81.64212,0,0,1-14.313,3.58c-.526-.407-1.024-.849-1.577-1.218a11.64984,11.64984,0,0,1-1.991-.347c4.551-1.033,9.108-2.037,13.618-3.232a99.87769,99.87769,0,0,0,11.156-3.473c-2.84.678-5.653,1.491-8.511,2.111-5.157,1.172-10.35,2.181-15.552,3.127-.254.061-.566.081-.711.335a5.13138,5.13138,0,0,0-1.057,4.139,14.15217,14.15217,0,0,0,.639,1.991,4.67271,4.67271,0,0,1-1.259-4.953,19.83336,19.83336,0,0,1,3.447-6.429,77.32545,77.32545,0,0,1,10.671-11.052,180.18593,180.18593,0,0,1,21.877-16.12" transform="translate(-133.07658 -148.78601)"/></svg>