<svg width="24" height="24" viewBox="0 0 24 24" fill="none" xmlns="http://www.w3.org/2000/svg">
<path d="M8.66659 6.14666C8.66659 5.26261 9.01777 4.41476 9.6429 3.78964C10.268 3.16452 11.1159 2.81333 11.9999 2.81333C12.884 2.81333 13.7318 3.16452 14.3569 3.78964C14.9821 4.41476 15.3333 5.26261 15.3333 6.14666V8H16.6666V6.14666C16.6666 5.53383 16.5459 4.92699 16.3114 4.36081C16.0768 3.79462 15.7331 3.28017 15.2997 2.84683C14.8664 2.41349 14.352 2.06975 13.7858 1.83522C13.2196 1.6007 12.6128 1.48 11.9999 1.48C11.3871 1.48 10.7802 1.6007 10.2141 1.83522C9.64788 2.06975 9.13343 2.41349 8.70009 2.84683C8.26675 3.28017 7.923 3.79462 7.68848 4.36081C7.45396 4.92699 7.33325 5.53383 7.33325 6.14666V8H8.66659V6.14666Z" fill="white"/>
<path d="M16.6667 8V10.0667C16.6667 10.2435 16.5965 10.413 16.4715 10.5381C16.3465 10.6631 16.1769 10.7333 16.0001 10.7333C15.8233 10.7333 15.6537 10.6631 15.5287 10.5381C15.4037 10.413 15.3334 10.2435 15.3334 10.0667V8H8.66675V10.0667C8.66675 10.2435 8.59651 10.413 8.47149 10.5381C8.34646 10.6631 8.17689 10.7333 8.00008 10.7333C7.82327 10.7333 7.6537 10.6631 7.52868 10.5381C7.40365 10.413 7.33341 10.2435 7.33341 10.0667V8H2.66675V21.3333C2.66675 21.687 2.80722 22.0261 3.05727 22.2761C3.30732 22.5262 3.64646 22.6667 4.00008 22.6667H20.0001C20.3537 22.6667 20.6928 22.5262 20.9429 22.2761C21.1929 22.0261 21.3334 21.687 21.3334 21.3333V8H16.6667Z" fill="white"/>
</svg>
