<svg width="18" height="20" viewBox="0 0 18 20" fill="none" xmlns="http://www.w3.org/2000/svg">
<path d="M9.00001 9.09999C6.27601 9.09999 5.72401 4.97199 5.72401 4.97199C5.40001 2.82399 6.38401 0.399994 8.96401 0.399994C11.556 0.399994 12.54 2.82399 12.216 4.97199C12.216 4.97199 11.724 9.09999 9.00001 9.09999ZM9.00001 12.184L12.264 9.99999C15.132 9.99999 17.688 12.796 17.688 15.436V18.424C17.688 18.424 13.308 19.78 9.00001 19.78C4.62001 19.78 0.312012 18.424 0.312012 18.424V15.436C0.312012 12.736 2.64001 10.06 5.67601 10.06L9.00001 12.184Z" fill="white"/>
</svg>
